<svg xmlns="http://www.w3.org/2000/svg" xmlns:xlink="http://www.w3.org/1999/xlink" width="225" zoomAndPan="magnify" viewBox="0 0 168.75 168.75" height="225" preserveAspectRatio="xMidYMid meet" version="1.0"><defs><g/></defs><g fill="#000000" fill-opacity="1"><g transform="translate(45.846068, 128.413582)"><g><path d="M 19.40625 -81.046875 C 19.019531 -81.046875 18.6875 -81.019531 18.40625 -80.96875 C 18.125 -80.925781 17.789062 -80.859375 17.40625 -80.765625 C 17.21875 -80.765625 17.097656 -80.738281 17.046875 -80.6875 C 17.003906 -80.644531 16.9375 -80.625 16.84375 -80.625 C 15.976562 -80.625 15.546875 -81.144531 15.546875 -82.1875 C 15.546875 -83.613281 16.164062 -84.96875 17.40625 -86.25 C 18.644531 -87.539062 20.210938 -88.632812 22.109375 -89.53125 C 24.015625 -90.4375 26.132812 -91.148438 28.46875 -91.671875 C 30.800781 -92.203125 33.109375 -92.46875 35.390625 -92.46875 C 41.953125 -92.46875 46.726562 -90.679688 49.71875 -87.109375 C 52.71875 -83.546875 54.21875 -78.289062 54.21875 -71.34375 C 54.21875 -65.0625 53.144531 -59.445312 51 -54.5 C 48.863281 -49.5625 45.421875 -44.804688 40.671875 -40.234375 L 5.703125 -7.421875 L 5.703125 0 L 68.921875 0 L 70.484375 -26.546875 L 70.484375 -27.6875 C 70.484375 -29.96875 70.148438 -31.109375 69.484375 -31.109375 C 69.015625 -31.109375 68.679688 -30.796875 68.484375 -30.171875 C 68.296875 -29.554688 68.015625 -28.441406 67.640625 -26.828125 C 66.585938 -22.160156 65.085938 -18.472656 63.140625 -15.765625 C 61.191406 -13.054688 58.078125 -11.703125 53.796875 -11.703125 L 13.703125 -11.703125 L 43.953125 -37.953125 C 47.367188 -40.898438 50.578125 -43.800781 53.578125 -46.65625 C 56.578125 -49.507812 59.191406 -52.382812 61.421875 -55.28125 C 63.660156 -58.1875 65.445312 -61.132812 66.78125 -64.125 C 68.113281 -67.125 68.78125 -70.195312 68.78125 -73.34375 C 68.78125 -77.4375 67.898438 -80.882812 66.140625 -83.6875 C 64.378906 -86.488281 62.070312 -88.769531 59.21875 -90.53125 C 56.363281 -92.289062 53.148438 -93.550781 49.578125 -94.3125 C 46.015625 -95.070312 42.472656 -95.453125 38.953125 -95.453125 C 34.765625 -95.453125 30.789062 -94.976562 27.03125 -94.03125 C 23.28125 -93.082031 19.976562 -91.679688 17.125 -89.828125 C 14.269531 -87.972656 12.007812 -85.710938 10.34375 -83.046875 C 8.675781 -80.378906 7.84375 -77.332031 7.84375 -73.90625 C 7.84375 -71.050781 8.695312 -68.71875 10.40625 -66.90625 C 12.125 -65.101562 14.503906 -64.203125 17.546875 -64.203125 C 19.929688 -64.203125 22.144531 -64.914062 24.1875 -66.34375 C 26.226562 -67.769531 27.25 -69.957031 27.25 -72.90625 C 27.25 -74.8125 26.507812 -76.644531 25.03125 -78.40625 C 23.5625 -80.164062 21.6875 -81.046875 19.40625 -81.046875 Z M 19.40625 -81.046875 "/></g></g></g></svg>