<svg xmlns="http://www.w3.org/2000/svg" xmlns:xlink="http://www.w3.org/1999/xlink" width="225" zoomAndPan="magnify" viewBox="0 0 168.75 168.75" height="225" preserveAspectRatio="xMidYMid meet" version="1.0"><defs><g/></defs><g fill="#000000" fill-opacity="1"><g transform="translate(45.846068, 128.413582)"><g><path d="M 54.5 -93.75 L 18.265625 -93.75 C 16.359375 -93.75 14.976562 -93.25 14.125 -92.25 C 13.269531 -91.25 12.84375 -89.894531 12.84375 -88.1875 L 12.84375 -52.9375 C 15.507812 -54.363281 18.265625 -55.382812 21.109375 -56 C 23.960938 -56.625 27.910156 -56.9375 32.953125 -56.9375 C 36.378906 -56.9375 39.539062 -56.316406 42.4375 -55.078125 C 45.34375 -53.835938 47.863281 -52.050781 50 -49.71875 C 52.144531 -47.394531 53.8125 -44.539062 55 -41.15625 C 56.195312 -37.78125 56.796875 -33.90625 56.796875 -29.53125 C 56.796875 -19.738281 54.867188 -12.390625 51.015625 -7.484375 C 47.160156 -2.585938 41.804688 -0.140625 34.953125 -0.140625 C 31.535156 -0.140625 28.46875 -0.640625 25.75 -1.640625 C 23.039062 -2.640625 20.6875 -3.992188 18.6875 -5.703125 C 18.019531 -6.273438 17.6875 -6.847656 17.6875 -7.421875 C 17.6875 -7.703125 17.734375 -7.984375 17.828125 -8.265625 C 17.929688 -8.554688 18.21875 -8.796875 18.6875 -8.984375 C 19.351562 -9.179688 20.113281 -9.421875 20.96875 -9.703125 C 21.832031 -9.984375 22.644531 -10.410156 23.40625 -10.984375 C 24.164062 -11.554688 24.804688 -12.316406 25.328125 -13.265625 C 25.847656 -14.222656 26.109375 -15.414062 26.109375 -16.84375 C 26.109375 -19.59375 25.273438 -21.632812 23.609375 -22.96875 C 21.953125 -24.300781 20.03125 -24.96875 17.84375 -24.96875 C 15.644531 -24.96875 13.691406 -24.179688 11.984375 -22.609375 C 10.273438 -21.046875 9.421875 -18.835938 9.421875 -15.984375 C 9.421875 -12.941406 10.203125 -10.273438 11.765625 -7.984375 C 13.335938 -5.703125 15.359375 -3.800781 17.828125 -2.28125 C 20.304688 -0.757812 23.066406 0.398438 26.109375 1.203125 C 29.148438 2.015625 32.097656 2.421875 34.953125 2.421875 C 39.617188 2.421875 44.113281 1.679688 48.4375 0.203125 C 52.769531 -1.265625 56.625 -3.378906 60 -6.140625 C 63.375 -8.898438 66.082031 -12.25 68.125 -16.1875 C 70.175781 -20.132812 71.203125 -24.628906 71.203125 -29.671875 C 71.203125 -35.097656 70.109375 -39.710938 67.921875 -43.515625 C 65.734375 -47.328125 62.832031 -50.441406 59.21875 -52.859375 C 55.601562 -55.285156 51.507812 -57.066406 46.9375 -58.203125 C 42.375 -59.347656 37.710938 -59.921875 32.953125 -59.921875 C 27.910156 -59.921875 24.128906 -59.632812 21.609375 -59.0625 C 19.097656 -58.5 17.128906 -57.929688 15.703125 -57.359375 L 15.703125 -81.46875 L 50.515625 -81.46875 C 52.890625 -81.46875 54.859375 -81.96875 56.421875 -82.96875 C 57.992188 -83.96875 59.253906 -85.15625 60.203125 -86.53125 C 61.160156 -87.914062 61.851562 -89.367188 62.28125 -90.890625 C 62.707031 -92.410156 62.921875 -93.695312 62.921875 -94.75 C 62.921875 -96.9375 62.445312 -98.03125 61.5 -98.03125 C 61.019531 -98.03125 60.660156 -97.863281 60.421875 -97.53125 C 60.191406 -97.195312 59.976562 -96.695312 59.78125 -96.03125 C 59.59375 -95.082031 59.117188 -94.460938 58.359375 -94.171875 C 57.597656 -93.890625 56.3125 -93.75 54.5 -93.75 Z M 54.5 -93.75 "/></g></g></g></svg>