<svg xmlns="http://www.w3.org/2000/svg" xmlns:xlink="http://www.w3.org/1999/xlink" width="225" zoomAndPan="magnify" viewBox="0 0 168.75 168.75" height="225" preserveAspectRatio="xMidYMid meet" version="1.0"><defs><g/></defs><g fill="#000000" fill-opacity="1"><g transform="translate(45.846068, 128.413582)"><g><path d="M 52.9375 -98.3125 L 47.234375 -98.3125 C 47.234375 -98.3125 46.707031 -97.570312 45.65625 -96.09375 C 44.613281 -94.625 43 -92.269531 40.8125 -89.03125 C 38.625 -85.800781 35.835938 -81.617188 32.453125 -76.484375 C 29.078125 -71.347656 25.015625 -65.113281 20.265625 -57.78125 C 18.171875 -54.644531 16.21875 -51.554688 14.40625 -48.515625 C 12.601562 -45.472656 11.007812 -42.757812 9.625 -40.375 C 8.25 -38 7.179688 -36.070312 6.421875 -34.59375 C 5.660156 -33.125 5.28125 -32.390625 5.28125 -32.390625 L 5.28125 -29.390625 L 39.375 -29.390625 L 39.375 -2.28125 L 26.828125 -2.28125 L 26.828125 0 L 65.640625 0 L 65.640625 -2.28125 L 52.9375 -2.28125 L 52.9375 -29.390625 L 69.625 -29.390625 L 69.625 -15.984375 L 71.921875 -15.984375 L 71.921875 -46.09375 L 69.625 -46.09375 L 69.625 -31.671875 L 52.9375 -31.671875 Z M 7.984375 -31.671875 C 8.273438 -32.242188 8.988281 -33.53125 10.125 -35.53125 C 11.269531 -37.53125 12.578125 -39.835938 14.046875 -42.453125 C 15.523438 -45.066406 17.117188 -47.800781 18.828125 -50.65625 C 20.546875 -53.507812 22.117188 -56.078125 23.546875 -58.359375 C 24.679688 -60.160156 26.101562 -62.320312 27.8125 -64.84375 C 29.53125 -67.363281 31.195312 -69.835938 32.8125 -72.265625 C 34.4375 -74.691406 35.863281 -76.804688 37.09375 -78.609375 C 38.332031 -80.421875 39.09375 -81.566406 39.375 -82.046875 L 39.375 -31.671875 Z M 7.984375 -31.671875 "/></g></g></g></svg>