<svg xmlns="http://www.w3.org/2000/svg" xmlns:xlink="http://www.w3.org/1999/xlink" width="225" zoomAndPan="magnify" viewBox="0 0 168.75 168.75" height="225" preserveAspectRatio="xMidYMid meet" version="1.0"><defs><g/></defs><g fill="#000000" fill-opacity="1"><g transform="translate(45.846068, 128.413582)"><g><path d="M 13.125 -79.90625 C 13.125 -77.144531 13.929688 -75.003906 15.546875 -73.484375 C 17.171875 -71.960938 19.125 -71.203125 21.40625 -71.203125 C 23.96875 -71.203125 26.054688 -71.890625 27.671875 -73.265625 C 29.296875 -74.648438 30.109375 -76.484375 30.109375 -78.765625 C 30.109375 -81.046875 29.535156 -82.800781 28.390625 -84.03125 C 27.253906 -85.269531 25.875 -86.128906 24.25 -86.609375 C 23.394531 -86.898438 22.96875 -87.472656 22.96875 -88.328125 C 22.96875 -88.796875 23.253906 -89.269531 23.828125 -89.75 C 25.160156 -90.789062 27.109375 -91.664062 29.671875 -92.375 C 32.242188 -93.09375 34.910156 -93.453125 37.671875 -93.453125 C 41.378906 -93.453125 44.328125 -92.832031 46.515625 -91.59375 C 48.703125 -90.363281 50.34375 -88.796875 51.4375 -86.890625 C 52.53125 -84.992188 53.21875 -82.898438 53.5 -80.609375 C 53.789062 -78.328125 53.9375 -76.09375 53.9375 -73.90625 C 53.9375 -70.007812 53.4375 -66.679688 52.4375 -63.921875 C 51.4375 -61.160156 50.03125 -58.898438 48.21875 -57.140625 C 46.414062 -55.378906 44.328125 -54.09375 41.953125 -53.28125 C 39.578125 -52.476562 36.960938 -52.078125 34.109375 -52.078125 C 32.578125 -52.078125 30.882812 -52.171875 29.03125 -52.359375 C 27.175781 -52.554688 25.632812 -52.65625 24.40625 -52.65625 C 23.257812 -52.65625 22.398438 -52.441406 21.828125 -52.015625 C 21.253906 -51.585938 20.96875 -51.085938 20.96875 -50.515625 C 20.96875 -50.035156 21.253906 -49.582031 21.828125 -49.15625 C 22.398438 -48.726562 23.257812 -48.515625 24.40625 -48.515625 C 25.632812 -48.515625 27.175781 -48.582031 29.03125 -48.71875 C 30.882812 -48.863281 32.578125 -48.9375 34.109375 -48.9375 C 38.378906 -48.9375 41.914062 -48.242188 44.71875 -46.859375 C 47.53125 -45.484375 49.742188 -43.675781 51.359375 -41.4375 C 52.984375 -39.207031 54.101562 -36.710938 54.71875 -33.953125 C 55.332031 -31.203125 55.640625 -28.492188 55.640625 -25.828125 C 55.640625 -21.546875 55.140625 -17.785156 54.140625 -14.546875 C 53.148438 -11.316406 51.75 -8.628906 49.9375 -6.484375 C 48.132812 -4.347656 46.039062 -2.734375 43.65625 -1.640625 C 41.28125 -0.546875 38.664062 0 35.8125 0 C 33.34375 0 30.75 -0.398438 28.03125 -1.203125 C 25.320312 -2.015625 23.113281 -3.132812 21.40625 -4.5625 C 20.738281 -5.132812 20.40625 -5.800781 20.40625 -6.5625 C 20.40625 -6.84375 20.5 -7.175781 20.6875 -7.5625 C 20.875 -7.945312 21.207031 -8.234375 21.6875 -8.421875 C 22.164062 -8.609375 22.804688 -8.867188 23.609375 -9.203125 C 24.421875 -9.535156 25.179688 -10.035156 25.890625 -10.703125 C 26.609375 -11.367188 27.226562 -12.203125 27.75 -13.203125 C 28.269531 -14.203125 28.53125 -15.460938 28.53125 -16.984375 C 28.53125 -20.210938 27.625 -22.585938 25.8125 -24.109375 C 24.007812 -25.628906 21.875 -26.390625 19.40625 -26.390625 C 16.9375 -26.390625 14.796875 -25.535156 12.984375 -23.828125 C 11.179688 -22.117188 10.28125 -19.691406 10.28125 -16.546875 C 10.28125 -13.410156 11.109375 -10.648438 12.765625 -8.265625 C 14.429688 -5.890625 16.546875 -3.914062 19.109375 -2.34375 C 21.679688 -0.78125 24.582031 0.398438 27.8125 1.203125 C 31.050781 2.015625 34.242188 2.421875 37.390625 2.421875 C 42.046875 2.421875 46.320312 1.660156 50.21875 0.140625 C 54.125 -1.378906 57.503906 -3.445312 60.359375 -6.0625 C 63.210938 -8.675781 65.421875 -11.695312 66.984375 -15.125 C 68.554688 -18.550781 69.34375 -22.210938 69.34375 -26.109375 C 69.34375 -32.097656 67.488281 -37.1875 63.78125 -41.375 C 60.070312 -45.5625 54.175781 -48.507812 46.09375 -50.21875 C 47.800781 -50.320312 49.867188 -50.867188 52.296875 -51.859375 C 54.722656 -52.859375 57.078125 -54.285156 59.359375 -56.140625 C 61.640625 -58.003906 63.585938 -60.3125 65.203125 -63.0625 C 66.828125 -65.820312 67.640625 -69.054688 67.640625 -72.765625 C 67.640625 -76.765625 66.828125 -80.191406 65.203125 -83.046875 C 63.585938 -85.898438 61.425781 -88.273438 58.71875 -90.171875 C 56.007812 -92.078125 52.914062 -93.484375 49.4375 -94.390625 C 45.96875 -95.296875 42.378906 -95.75 38.671875 -95.75 C 33.910156 -95.75 29.910156 -95.175781 26.671875 -94.03125 C 23.441406 -92.882812 20.828125 -91.476562 18.828125 -89.8125 C 16.835938 -88.15625 15.390625 -86.421875 14.484375 -84.609375 C 13.578125 -82.804688 13.125 -81.238281 13.125 -79.90625 Z M 13.125 -79.90625 "/></g></g></g></svg>